<svg width="100" height="100" viewBox="0 0 100 100" fill="none" xmlns="http://www.w3.org/2000/svg">
<path d="M50 8.51064C72.9149 8.51064 91.4894 27.0851 91.4894 50C91.4894 72.9149 72.9149 91.4894 50 91.4894C27.0851 91.4894 8.51064 72.9149 8.51064 50C8.51064 27.0851 27.0851 8.51064 50 8.51064ZM50 0C43.2553 0 36.7021 1.31915 30.5319 3.93617C24.5745 6.44681 19.234 10.0638 14.6383 14.6383C10.0426 19.234 6.44681 24.5745 3.93617 30.5319C1.31915 36.7021 0 43.2553 0 50C0 56.7447 1.31915 63.2979 3.93617 69.4681C6.44681 75.4255 10.0638 80.766 14.6383 85.3617C19.234 89.9575 24.5745 93.5532 30.5319 96.0638C36.7021 98.6809 43.2553 100 50 100C56.7447 100 63.2979 98.6809 69.4681 96.0638C75.4255 93.5532 80.766 89.9362 85.3617 85.3617C89.9575 80.766 93.5532 75.4255 96.0638 69.4681C98.6809 63.2979 100 56.7447 100 50C100 43.2553 98.6809 36.7021 96.0638 30.5319C93.5532 24.5745 89.9362 19.234 85.3617 14.6383C80.766 10.0426 75.4255 6.44681 69.4681 3.93617C63.2979 1.31915 56.7447 0 50 0Z" fill="white"/>
<path d="M62.5106 57.9787C66.9172 57.9787 70.4894 54.4066 70.4894 50C70.4894 45.5935 66.9172 42.0213 62.5106 42.0213C58.1041 42.0213 54.5319 45.5935 54.5319 50C54.5319 54.4066 58.1041 57.9787 62.5106 57.9787Z" fill="white"/>
<path d="M43.8936 41.766C48.3002 41.766 51.8724 38.1938 51.8724 33.7873C51.8724 29.3807 48.3002 25.8085 43.8936 25.8085C39.4871 25.8085 35.9149 29.3807 35.9149 33.7873C35.9149 38.1938 39.4871 41.766 43.8936 41.766Z" fill="white"/>
<path d="M43.8936 74.2128C48.3002 74.2128 51.8724 70.6406 51.8724 66.234C51.8724 61.8275 48.3002 58.2553 43.8936 58.2553C39.4871 58.2553 35.9149 61.8275 35.9149 66.234C35.9149 70.6406 39.4871 74.2128 43.8936 74.2128Z" fill="white"/>
</svg>
