<svg width="100" height="100" viewBox="0 0 100 100" fill="none" xmlns="http://www.w3.org/2000/svg">
<path d="M50 82.1276C47.0638 82.1276 44.6808 79.7447 44.6808 76.8085V23.1915C44.6808 20.2553 47.0638 17.8723 50 17.8723C52.9362 17.8723 55.3191 20.2553 55.3191 23.1915V76.8085C55.3191 79.7447 52.9362 82.1276 50 82.1276Z" fill="white"/>
<path d="M32.9787 67.0212C30.0426 67.0212 27.6596 64.6383 27.6596 61.7021V38.2978C27.6596 35.3617 30.0426 32.9787 32.9787 32.9787C35.9149 32.9787 38.2979 35.3617 38.2979 38.2978V61.7021C38.2979 64.6383 35.9149 67.0212 32.9787 67.0212Z" fill="white"/>
<path d="M67.0213 67.0212C64.0851 67.0212 61.7021 64.6383 61.7021 61.7021V38.2978C61.7021 35.3617 64.0851 32.9787 67.0213 32.9787C69.9574 32.9787 72.3404 35.3617 72.3404 38.2978V61.7021C72.3404 64.6383 69.9574 67.0212 67.0213 67.0212Z" fill="white"/>
<path d="M50 8.51064C72.9149 8.51064 91.4894 27.0851 91.4894 50C91.4894 72.9149 72.9149 91.4894 50 91.4894C27.0851 91.4894 8.51064 72.9149 8.51064 50C8.51064 27.0851 27.0851 8.51064 50 8.51064ZM50 0C43.2553 0 36.7021 1.31915 30.5319 3.93617C24.5745 6.44681 19.234 10.0638 14.6383 14.6383C10.0426 19.234 6.44681 24.5745 3.93617 30.5319C1.31915 36.7021 0 43.2553 0 50C0 56.7447 1.31915 63.2979 3.93617 69.4681C6.44681 75.4255 10.0638 80.766 14.6383 85.3617C19.234 89.9575 24.5745 93.5532 30.5319 96.0638C36.7021 98.6809 43.2553 100 50 100C56.7447 100 63.2979 98.6809 69.4681 96.0638C75.4255 93.5532 80.766 89.9362 85.3617 85.3617C89.9575 80.766 93.5532 75.4255 96.0638 69.4681C98.6809 63.2979 100 56.7447 100 50C100 43.2553 98.6809 36.7021 96.0638 30.5319C93.5532 24.5745 89.9362 19.234 85.3617 14.6383C80.766 10.0426 75.4255 6.44681 69.4681 3.93617C63.2979 1.31915 56.7447 0 50 0Z" fill="white"/>
</svg>
