<svg width="100" height="100" viewBox="0 0 100 100" fill="none" xmlns="http://www.w3.org/2000/svg">
<path d="M50 18.0851C32.383 18.0851 18.0851 32.383 18.0851 50C18.0851 67.617 32.383 81.9149 50 81.9149C67.617 81.9149 81.9149 67.617 81.9149 50C81.9149 32.383 67.617 18.0851 50 18.0851ZM28.7234 50C28.7234 40.1064 35.5106 31.7659 44.6808 29.4042V70.617C35.5106 68.234 28.7234 59.8936 28.7234 50ZM55.3191 70.5957V29.4042C64.4893 31.7659 71.2766 40.1064 71.2766 50C71.2766 59.8936 64.4893 68.234 55.3191 70.5957Z" fill="white"/>
<path d="M50 8.51064C72.9149 8.51064 91.4894 27.0851 91.4894 50C91.4894 72.9149 72.9149 91.4894 50 91.4894C27.0851 91.4894 8.51064 72.9149 8.51064 50C8.51064 27.0851 27.0851 8.51064 50 8.51064ZM50 0C43.2553 0 36.7021 1.31915 30.5319 3.93617C24.5745 6.44681 19.234 10.0638 14.6383 14.6383C10.0426 19.234 6.44681 24.5745 3.93617 30.5319C1.31915 36.7021 0 43.2553 0 50C0 56.7447 1.31915 63.2979 3.93617 69.4681C6.44681 75.4255 10.0638 80.766 14.6383 85.3617C19.234 89.9575 24.5745 93.5532 30.5319 96.0638C36.7021 98.6809 43.2553 100 50 100C56.7447 100 63.2979 98.6809 69.4681 96.0638C75.4255 93.5532 80.766 89.9362 85.3617 85.3617C89.9575 80.766 93.5532 75.4255 96.0638 69.4681C98.6809 63.2979 100 56.7447 100 50C100 43.2553 98.6809 36.7021 96.0638 30.5319C93.5532 24.5745 89.9362 19.234 85.3617 14.6383C80.766 10.0426 75.4255 6.44681 69.4681 3.93617C63.2979 1.31915 56.7447 0 50 0Z" fill="white"/>
</svg>
