<svg width="100" height="100" viewBox="0 0 100 100" fill="none" xmlns="http://www.w3.org/2000/svg">
<path d="M50 77.6595C65.2759 77.6595 77.6595 65.2759 77.6595 50C77.6595 34.724 65.2759 22.3404 50 22.3404C34.724 22.3404 22.3404 34.724 22.3404 50C22.3404 65.2759 34.724 77.6595 50 77.6595Z" fill="white"/>
<path d="M50 26.5957C56.2553 26.5957 62.1276 29.0213 66.5532 33.4468C70.9787 37.8723 73.4042 43.7447 73.4042 50C73.4042 56.2553 70.9787 62.1276 66.5532 66.5532C62.1276 70.9787 56.2553 73.4042 50 73.4042C43.7447 73.4042 37.8723 70.9787 33.4468 66.5532C29.0213 62.1276 26.5957 56.2553 26.5957 50C26.5957 43.7447 29.0213 37.8723 33.4468 33.4468C37.8723 29.0213 43.7447 26.5957 50 26.5957ZM50 18.0851C32.383 18.0851 18.0851 32.383 18.0851 50C18.0851 67.617 32.383 81.9149 50 81.9149C67.617 81.9149 81.9149 67.617 81.9149 50C81.9149 32.383 67.617 18.0851 50 18.0851Z" fill="white"/>
<path d="M50 8.51064C72.9149 8.51064 91.4894 27.0851 91.4894 50C91.4894 72.9149 72.9149 91.4894 50 91.4894C27.0851 91.4894 8.51064 72.9149 8.51064 50C8.51064 27.0851 27.0851 8.51064 50 8.51064ZM50 0C43.2553 0 36.7021 1.31915 30.5319 3.93617C24.5745 6.44681 19.234 10.0638 14.6383 14.6383C10.0426 19.234 6.44681 24.5745 3.93617 30.5319C1.31915 36.7021 0 43.2553 0 50C0 56.7447 1.31915 63.2979 3.93617 69.4681C6.44681 75.4255 10.0638 80.766 14.6383 85.3617C19.234 89.9575 24.5745 93.5532 30.5319 96.0638C36.7021 98.6809 43.2553 100 50 100C56.7447 100 63.2979 98.6809 69.4681 96.0638C75.4255 93.5532 80.766 89.9362 85.3617 85.3617C89.9575 80.766 93.5532 75.4255 96.0638 69.4681C98.6809 63.2979 100 56.7447 100 50C100 43.2553 98.6809 36.7021 96.0638 30.5319C93.5532 24.5745 89.9362 19.234 85.3617 14.6383C80.766 10.0426 75.4255 6.44681 69.4681 3.93617C63.2979 1.31915 56.7447 0 50 0Z" fill="white"/>
</svg>
